<svg width="45" height="45" viewBox="0 0 45 45" fill="none" xmlns="http://www.w3.org/2000/svg">
<path d="M22.5 0.5625C10.4062 0.5625 0.5625 10.4062 0.5625 22.5C0.5625 34.5994 10.4062 44.4375 22.5 44.4375C34.5999 44.4375 44.4375 34.5994 44.4375 22.5C44.4375 10.4062 34.5999 0.5625 22.5 0.5625ZM22.5 43.5938C10.8506 43.5938 1.40625 34.1494 1.40625 22.5C1.40625 10.8506 10.8506 1.40625 22.5 1.40625C34.1494 1.40625 43.5938 10.8506 43.5938 22.5C43.5938 34.1494 34.1494 43.5938 22.5 43.5938Z" fill="#00ED34"/>
<path d="M23.2988 13.545C22.7869 13.545 22.2694 13.5731 21.735 13.6294C20.1094 11.5031 18.2194 11.3906 17.8369 11.3906H17.7469C17.3025 11.4188 16.9538 11.7844 16.9538 12.2344V14.9569C14.6588 16.0706 12.9263 17.7694 12.0825 19.7325H10.7325C10.2657 19.7325 9.88879 20.1094 9.88879 20.5763V23.8612C9.88879 24.3281 10.2657 24.705 10.7325 24.705H11.835C12.3807 26.3925 13.5619 27.9338 15.2325 29.1206V32.2031C15.2325 32.9794 15.8625 33.6094 16.6388 33.6094H19.0013C19.7775 33.6094 20.4075 32.9794 20.4075 32.2031V31.2694C22.6182 31.6969 24.9188 31.6238 27.045 31.0781V32.2031C27.045 32.9794 27.675 33.6094 28.4513 33.6094H30.8138C31.59 33.6094 32.22 32.9794 32.22 32.2031V28.44C34.0875 26.8031 35.1113 24.7219 35.1113 22.545C35.1113 17.5838 29.8125 13.545 23.2988 13.545ZM31.3763 28.0462V32.2031C31.3763 32.5125 31.1232 32.7656 30.8138 32.7656H28.4513C28.1419 32.7656 27.8888 32.5125 27.8888 32.2031V29.9475C26.4938 30.4256 24.9413 30.7013 23.2988 30.7013C21.9825 30.7013 20.7338 30.5212 19.5638 30.2063V32.2031C19.5638 32.5125 19.3107 32.7656 19.0013 32.7656H16.6388C16.3294 32.7656 16.0763 32.5125 16.0763 32.2031V28.6763C14.2032 27.4556 12.8982 25.7681 12.4819 23.8612H10.7325V20.5763H12.6619C13.3875 18.4106 15.2719 16.5881 17.8032 15.4969L17.7975 15.4913V12.2344C17.7975 12.2344 19.7438 12.1219 21.3357 14.5237L21.33 14.5294C21.9713 14.4394 22.6238 14.3888 23.2988 14.3888C29.3569 14.3888 34.2675 18.0394 34.2675 22.545C34.2675 24.6713 33.165 26.595 31.3763 28.0462Z" fill="#00ED34"/>
<path d="M16.0841 19.8985C16.4628 19.8985 16.7698 19.5915 16.7698 19.2128C16.7698 18.8341 16.4628 18.5271 16.0841 18.5271C15.7054 18.5271 15.3984 18.8341 15.3984 19.2128C15.3984 19.5915 15.7054 19.8985 16.0841 19.8985Z" fill="#00ED34"/>
<path d="M34.6641 22.9219C34.5353 22.9219 34.4076 22.8628 34.3243 22.7509C34.186 22.5636 34.2253 22.2992 34.4127 22.1608L37.9283 19.5592C38.1156 19.4209 38.3794 19.4597 38.5183 19.6476C38.6567 19.8349 38.6173 20.0992 38.43 20.2376L34.9144 22.8392C34.8396 22.8949 34.7518 22.9219 34.6641 22.9219Z" fill="#00ED34"/>
</svg>
